<svg xmlns="http://www.w3.org/2000/svg" width="326" height="308" fill="none"><path stroke="url(#a)" stroke-linecap="round" stroke-linejoin="round" stroke-miterlimit="10" d="m252.6 247.183 1.214-1.905m-1.214 1.904-.799-.341m.799.341-6.678 4.23m6.678-4.23 13.663 4.316m0 0-21.101 12.73-12.273-3.763m33.374-8.967 12.117 2.181m-12.117-2.18 14.299-23.495m0-.001-5.895-1.942m17.422 4.195-11.527-2.253 1.22-9.768m-48.893 42.23-4.853 3.258m4.853-3.258 10.2-6.851 14.178-11.02 12.661-11.463 10.915-11.678 8.98-11.666m-11.442 45.893 13.708-23.424m9.859.22L310 228.7m-8.052 1.776-9.859-.219 2.011-27.907m7.848 28.126.778-27.757m-8.627-.37-.882-.187m9.508.557-8.626-.369-.405-.977m0 0 3.03-5.019 5.083-9.665m-8.113 14.684-3.871 6.414m-61.787 55.936 5.363.906 23.435 1.587m-28.798-2.493-.37.249m29.168 2.244 10.034-.042 8.249-2.03 22.135-12.447 6.497-4.032 4.437-5.914 12.119-22.25m-63.471 46.715 21.546-12.537 10.38.051m-31.926 12.486-11.673-1.988-16.396-.994m91.54-43.733 2.166-7.18m-2.166 7.18-4.166 5.505-.967-26.718m5.133 21.213-1.466-25.867m3.632 18.687.176-8.699-1.728-23.625m1.552 32.324-1.717-24.829m.165-7.495-1.552-8.702m1.552 8.702-.165 7.495m.165-7.495-9.848-12.877m8.296 4.175-3.213-9.745-2.222-4.922m5.435 14.667-6.915-8.445m1.48-6.222.756-3.179.227-10.799-3.72-24.36-2.38-9.969m5.117 48.307-1.48 6.222m-23.692 90.88 8.493-2.034L310 228.699m-21.24 25.031 13.188-23.255M288.76 253.73l-21.892 12.443M310 228.7l6.139-3.694-12.389 22.659M310 228.7l-.219-27.354m0-.001-7.056 1.373-4.471-9.276m11.527 7.903 5.392-3.057m-5.392 3.057-7.974-14.656m13.366 11.599 3.667-4.654m-3.667 4.654-10.39-17.253m-2.976 5.654 2.976-5.654m14.056 12.599 1.915-6.142m-1.915 6.142-11.584-17.615m-2.472 5.016 1.739-3.306m14.232 9.763-11.493-16.152m-2.006 4.679-.733 1.71m.733-1.71 2.006-4.679m1.81-4.22-1.81 4.22m1.81-4.22.82-1.912m.561-2.358-.561 2.358m4.263-3.658-2.668-3.048M231.005 56.241l2.048 3.824m2.886.489-4.935-4.313-12.934-10.375m17.869 14.688 2.578.436m-2.578-.436-2.886-.488-.011-.002-5.648-.958-12.477-.506m3.153-12.734 4.457 5.767m-4.457-5.767-12.981-9.496-12.835-8.468-12.496-7.305m0 0-11.964-6.018m11.964 6.018 11.654 10.534M167.794 14.58l-11.24-4.618m11.24 4.618 13.942 11.703m-25.182-16.32-10.329-3.127m10.329 3.126 16.119 12.622 9.063 3.699M146.225 6.835l-9.239-1.56-23.252-.142-9.241.07-7.652 1.95-21.275 13.483-6.315 4.11-4.343 6.059-10.983 22.987-2.224 7.742-.135 9.094-.004.342m94.663-64.135 18.149 13.272M51.562 70.97l3.213 23.728 1.753 9.704M51.562 70.97l1.992 10.993M51.562 70.97l11.035-22.475m-6.07 55.907 3.608 10.881 2.44 5.339m-6.047-16.22-2.974-22.438m9.021 38.658 2.234 4.888m-2.234-4.888-9.424 7.861m11.658-2.973.28.612.47 1.03 7.168 12.65 8.791 13.192m-16.71-27.484-11.657 2.973m28.367 24.511 9.007 11.832m-9.007-11.832.792-15.477-10.136-15.141 12.397-20.361m5.954 62.811 1.256 1.651.095.112m-1.351-1.763-22.639-11.805m23.99 13.568-2.26 4.154m2.26-4.154 11.449 13.399m0 0 5.972 6.289m-5.972-6.289 4.156-11.402m1.816 17.691.479.506m-.479-.506-2.116 3.998-17.565-19.533m20.16 16.041 4.255 4.48m-4.255-4.48 1.242 5.088M222.527 51.632l-2.017 7.195m2.017-7.194-10.56-7.721m10.561 7.721 10.514 8.432M205.09 36.37l6.878 7.542m0 0-10.425-6.87m10.425 6.87-1.615 14.974m0 0 4.564-.286m-4.564.286-9.051.57M192.254 27.9l9.288 9.14m-10.13-5.909 10.13 5.91.582 18.93m-10.712-24.84-9.676-4.85m9.676 4.85L194.38 51.5m7.744 4.47 4.785 3.132m-4.785-3.131-7.744-4.473m7.744 4.473-1.272 3.551M194.38 51.5l-7.382-3.647m7.382 3.647-2.379 8.778-.164.602m-4.839-13.027-6.899-2.753m6.899 2.753-2.816 14.38m-2.446-35.951 5.263 21.57m-2.817 14.381 2.592-.591 14.528-2.187m-17.12 2.778-11.99 2.732m-7.819-44.858 8.299 2.476 7.427 22.517m-15.726-24.993-7.39-1.197m7.39 1.197 9.426 23.183 6.3 1.81-2.431 18.617M156.983 18.91l-6.347.122L129.01 5.337m27.973 13.573 11.225 23.558m0 0 5.591.823-1.607 21.674m-3.984-22.497-4.782.187-12.79-23.623-5.182 1.46m22.754 21.976-.838 26.77-3.527.51m8.349-4.783-9.751 8.64M129.01 5.338l7.977-.063 19.996 13.635M104.494 5.203l24.516.134m0 0-6.561 1.715m0 0-5.003 3.372m5.003-3.372-25.608.1-5.898 3.841-21.692 13.752M122.45 7.052l23.006 13.44m14.089 23.37 3.882-1.206.417 27.093-2.974 1.01-1.325-26.897zm0 0-2.906 2.216-15.093-22.792m17.999 20.576-14.089-23.37-3.91 2.794m0 0-2.549 4.103m20.04 44.841 1.833-1.472-1.289 2.54m0 0 .51 1.008.056.107.63 1.24.071.14.675 1.33.412.809m-2.354-4.633-1.027-2.02-.001-.002-.239-.47-2.551-6.532-1.446-5.826-16.09-19.157M86.943 16.703l4-5.709 26.503-.57m-30.503 6.28-1.989 7.52m1.99-7.52-22.037 14.1-2.25 7.95m24.285-22.052 27.174-1.275m3.329-5.003-3.329 5.003m3.329-5.003 24.099 12.86m-27.428-7.857-1.56 6.582m1.56-6.582 24.606 11.828.273.132m15.775 21.891 1.867-3.202 1.914 25.199m-3.781-21.996-.784 4.144m.784-4.145-15.774-21.891-1.121 5.36-25.319-10.739m42.214 27.27 1.567 16.471m-2.351-12.326.329 5.024m-.329-5.024.689 6.477m-.689-6.477-16.111-20.676.35 6.544m-75.567-.539 22.295-14.53m0 0 .001.143.104 9.094m-.105-9.238 27.603-2.213m0 0 .271 8.074m25.398 9.209 1.837 7.627m-1.837-7.627-25.398-9.208M51.7 61.533l10.958-22.78-.062 9.74m0 0 2.175 11.396 22.532-15.607m-24.707 4.212L85.058 33.46m0 0 2.245 10.823M85.059 33.46l27.769-3.377m0 0 2.135 9.447m46.971 38.4 4.633 7.596m-4.633-7.595-13.809-13.025 6.11 10.048m12.332 10.572 4.055 5.77m-4.055-5.77-10.197-8.741-.075-.065-2.06-1.766m16.387 16.342.161.228.081.116 1.273 1.811 4.979 6.303m-6.494-8.458 6.802-.97m-.308 9.428 1.158 1.468.126.159.144.182m-1.428-1.809.01-.339.298-9.09m1.12 11.238 3.945 4.51.048.054 3.136 3.585 7.722 8.031 8.169 7.764 4.635 4.026m-27.655-27.97-8.432-5.317m36.087 33.287.012.01 1.524 1.323m-1.536-1.333-.064-.418M91.69 56.52l-4.386-12.237 27.659-4.753m0 0 3.99 10.67m-3.99-10.67 25.1 7.388m-21.11 3.281L91.69 56.52l6.486 13.445M118.953 50.2l5.803 11.712M118.953 50.2l24.423 5.306m0 0-3.274-8.485-.039-.1 15.698 17.355M91.69 56.52 69.195 72.76l-4.423-12.87-11.218 22.074 4.133 12.378 2.448 20.94m83.241-59.778 4.749 9.401m-4.749-9.4 14.937 15.3m-94.392 37.089-6.233-13.553L69.195 72.76l6.63 14.125 22.35-16.92m26.581-8.053-26.58 8.054 8.495 14.412-22.1 17.637m40.185-40.103 7.534 12.545m-7.534-12.545 23.369 2.995m6.11 10.048 7.372 10.512-20.178 2.135m-75.87 39.55-1.637-19.258m0 0 .095.166 8.157 14.316m-8.253-14.482 11.903-21.01 8.747 15.13m0 .001 10.724 15.846m21.744-18.374-10.368-15.11 25.619-9.92m-15.251 25.03L129.096 115l-21.289 19.117m9.232-34.63 24.39-11.885m-9.139-13.146 9.139 13.146m-9.139-13.146 21.945.498m-12.806 12.648 5.812 7.41.007.008.186.238 4.58 5.839m-79.287 38.706-.553-17.426m23.121-4.515 21.744-18.373m53.073-3.243-8.504-10.78 10.529 7.986m-64.33 40.665L95.295 117.86l-12.984 19.656 11.843 15.506-2.373 13.454m16.026-32.359-13.653 18.906 13.327 15.562m.326-34.468 14.064 16.341m20.746-19.847-13.521-15.61 22.918-13.903m-9.397 29.513-20.746 19.848m20.746-19.848 14.719 15.39m-14.719-15.39 21.23-15.932-11.833-13.581m0 0 18.098-4.851m0 0 9.479 10.841m-57.72 43.371-14.39 18.127m14.39-18.127 15.34 16.092m42.38-59.464 6.082 2.625m-6.082-2.625-15.744 7.591.255.268 12.597 13.131-19.363 17.924m22.255-38.914 10.278 10.694m0 0 3.526-.038m-3.526.038 10.879 10.339m-93.267 40.466 14.552 15.306m0 0-4.239 6.505m4.239-6.505 4.319 4.109m10.86-21.451 20.124-20.549m-20.124 20.549-15.179 17.34m15.179-17.34 12.688 12.07m7.436-32.619 15.623 14.856m0 0 3.1 2.681m-3.1-2.681-9.942 10.847m27.302-30.679 6.394 5.544m-6.394-5.544-13.188-12.537-.433-.41 13.171-10.296m.45 23.243 10.429-12.904m0-.001 5.98 5.193.181.157.682.593m-6.843-5.943.815-2.613m-28.604 35.351 17.361-19.832m103.619 27.259 8.336-13.609m.001 0-17.379-21.183-8.108 12.932m0 0-24.908-15.066m24.908 15.066-10.535 13.265m10.535-13.265 16.846 21.472.304.388m0 0-10.883 13.947-13.257 14.017m24.14-27.964 4.691 22.507-10.307 13.36-12.559 13.404m14.701-96.424-5.569 12.361-25.789-13.372-7.226 11.239m0 0-25.667-4.079m25.667 4.079-9.326 11.523-11.272 11.589m.84-36.194.21-.437 3.955-8.191m-4.165 8.628 26.985 1.843 5.029-10.751 26.328 11.762 2.979-11.571m-61.321 8.717-20.594 9.986-.137.066m20.731-10.053-5.909 9.003m0 .001-19.03 7.737-.309.124m19.339-7.861-7.566 9.213m17.64-26.844 2.37-8.103m-2.37 8.103-21.678 12.131 1.872-6.17m-1.872 6.171-3.218 6.549-3.786 5.71-.016.023-.234.355-.221.331-.072.11-.188.282m0 0-.363.441-.158.19-1.582 1.914-.088.107-3.556 4.304-1.553 1.571-.377.384-1.619 1.639-.093.093-3.241 3.283-2.585 2.245-5.313 4.612-8.772 6.615-1.415.932-.101.067-7.971 5.25m0 0 6.713 3.204 12.622-8.324 16.299 13.274 14.537-11.043 20.363 20.293 14.835-13.159m-85.369-4.245-5.072 2.916-.054.032-4.899 2.816-10.375 5.171m0 0-.058 6.835 13.82-6.886 9.798 17.328 16.701-9.621m-40.261-7.656-9.853 4.192-.679.288-10.49 3.709-.314.088m0 0-8.558 2.396m0 0-1.381.386m0 0-1.099.221-8.728 1.762m9.827-1.983-10.387 10.452m.56-8.469-4.493 3.66-.115.094-8.983 7.318m13.591-11.072-2.334.269m0 0-6.89.796-2.436.039-.437.006-5.58.089-7.541-.788m22.884-.142-16.393-17.526-.77 4.474-26.3-8.563m-7.638-42.937-11.06 10.598-9.56 10.714m0 0-7.892 10.666m7.893-10.666 16.852-7.304m-24.745 17.97-6.078 10.452m6.078-10.452 18.405-9.34M18.56 170.913 5.836 201.819m12.725-30.906-4.138 10.068m4.138-10.068 19.635-11.356m-32.36 42.262-2.44 10.957m2.44-10.957 8.587-20.837M3.396 212.776l-.043 10.163 5.415 23.848 2.55 9.741m-7.922-43.752 8.933-22.279m-1.01 66.031 5.12 8.541m-5.12-8.541-5.556-24.407m10.675 32.948 18.078 17.072 7.42 6.939m-25.498-24.011 7.662 7.163m-7.662-7.163-5.796-24.926-4.727-7.772-.152-.249 8.767-24.918m27.407 81.876 9.753 5.467 11.96 3.862 13.987 2.153m-35.7-11.482L24.1 272.232m53.537 28.33 20.314 2.485 13.802.333m-34.116-2.818 15.789.369.285.037 18.042 2.412m-34.116-2.818-16.341-16.61 16.527.286m33.93 19.142 15.096-1.25 16.116-2.829m0 0 16.832-4.371m-16.832 4.371-13.699-3.1m30.531-1.271 17.225-5.839 17.281-7.203m-34.506 13.042-11.145-3.785m45.651-9.257-5.839-5.821-19.947 8.325m25.786-2.504 16.993-8.427 16.37-9.489m0 0-.667-8.596-18.909 10.953-9.634-18.774-.047-.091m91.414-39.677 8.807-16.995 7.892-13.063m0 0-4.246-23.053 5.68-13.018m3.935 23.55-3.935-23.55m.859-33.337-4.924-8.62-16.821-18.307m21.745 26.927-17.142-18.783 2.156 9.435m-6.759-17.58-6.917-6.745-9.063-5.263m15.98 12.009-25.241-6.657m25.241 6.657 4.603 8.144-25.97-7.692m5.387-12.462-11.016-3.728-21.557-4.666m32.573 8.395-23.005-5.139m-9.568-3.255-21.989 9.44 7.635 2.683m14.354-12.124 9.569 3.256M214.917 58.6l-17.358 9.803m3.743-8.948-14.743 9.607m121.397 72.596-17.491-20.526m17.491 20.526 2.971-12.197M266.91 99.297l-2.773 10.072-27.849.281m-19.806 5.961.511-5.685m-.511 5.685-7.78 16.777m102.225-2.928-17.484-19.9m.386-10.587-.386 10.587-26.533-10.263m26.919-.324 17.366 19.317-.268 11.17 3.761 23.988m-20.859-54.475-26.408-8.9m0 .001-.511 9.224-28.253 2.25m.559-7.44-.559 7.44-22.175 14.065m50.939-25.54-1.718-8.228m1.718 8.229-28.205 4.033m-1.234-6.656 1.234 6.657-22.223 15.819m20.989-22.476-2.977-5.771m2.977 5.77-21.834 17.369m0-.002.845 5.108-9.259 20.941m54.095-56.13 3.874 7.11-27.721 5.605m-2.977-5.771-4.642-4.801m4.642 4.801-21.027 18.688m.001 0 2.17 4.449-10.014 24.299m7.844-28.748-3.44-3.723m3.44 3.723-9.474 25.265 1.63 3.483m49.776-60.271 5.918 5.891-26.824 6.943m-4.642-4.8-6.2-3.764m6.2 3.764-19.824 19.767m-8.64 26.054 2.606 2.932.527 2.887m75.122-53.871-24.242-5.803m0 0-7.826-4.599m7.826 4.599-25.548 8.033m17.722-12.632-23.923 8.868m-13.624 23.532-4.639-2.943m4.639 2.943-8.64 26.055m.713 3.717-.713-3.717-3.531-2.337 7.532-26.662m18.263-20.588L205.9 93.702m0 0-5.744-2.121 16.372-21.15-8.921-1.574m-12.99 50.047 3.751 1.46.539 2.617m8.7-54.124-10.048-.454m10.048.454-14.194 21.447m0 .001 6.743 1.276-6.109 26.783m-.634-28.059-7.622-.417m7.622.417-3.935 23.365m37.915-54.564-19.786 9.752m-10.048-.455-11 .658m11-.658-11.768 21.484m0 0-8.367.44m8.367-.44-1.845 17.852m-6.522-17.413 9.135-21.264-11.77 1.746m0 0-12.348 2.797m12.348-2.797-5.617 18.425m17.602-27.59-11.985 9.165m-12.348 2.797-2.35.7m2.35-.7-.68 3.986m-119.67 61.49 15.009-5.279m0 0-7.716 8.688m7.716-8.688 14.524 4.053M57.1 133.801l7.99-7.68m-15.705 16.37-6.34 8.63m6.34-8.63 23.268 3.931 2.55-2.906m-32.158 7.605-4.848 8.437m4.848-8.437 24.842 1.9m0-.001 4.766-6.598 7.574 4.632m-12.34 1.967-3.61 6.435m-49.853 21.525-2.094 9.516m2.094-9.516L34.94 167.66m3.257-8.103-3.257 8.103m3.257-8.103 26.08-.101M34.94 167.66l-1.59 7.632m1.59-7.632 26.954-2.036m2.384-6.168-2.384 6.168m2.384-6.168 24.94 11.108.4.178m-27.724-5.118-1.104 5.795m1.104-5.795 25.966 9.884 1.757-4.766m16.67 22.058.894-2.525.512 2.266m-95.363-2.044.021 8.795m-.021-8.795 21.02-15.204m0 0 .13 7.026m-.13-7.026 27.44-3.873m0 0 .21 5.322m26.332 7.342-.241-4.102 13.064 13.525m-94.39 38.614-2.41-9.183 8.997-23.647m0 0 2.179 7.912m-2.18-7.912 21.128-16.973m0 0 1.874 6.295m-1.874-6.295 27.52-5.578m0 0 1.534 4.751m-1.534-4.751 26.333 7.344m1.256 3.66-1.256-3.659 9.648 9.752m-82.45 13.367 4.343 6.876m-4.342-6.876 20.821-18.59m-16.48 25.466 6.474 5.698m-6.474-5.698-8.23 26.064 7.316 6.693m.914-32.757 20.093-20.025m0-.001-3.614-5.441 27.18-7.121m-23.566 12.562 5.32 4.48-18.939 21.244m13.619-25.724 26-8.337.416-.133m-2.85-4.092 2.85 4.092m-2.85-4.092 26.056 6.251m-23.206-2.159 4.131 3.354m-4.131-3.354 25.467 5.308 3.235 2.579.844.398m-4.079-2.976-2.261-3.149 5.987 5.96M24.1 272.232l10.126 5.623m-16.268-31.018 9.68 5.212m-9.68-5.212 7.388-27.059m0 0 8.533 4.395M24.1 272.231l-6.142-25.395m33.285-44.878-6.958-3.424 25.227-9.596m-18.269 13.02 8.499 2.29 21.626-11.073-6.5-1.688m-23.625 10.471 23.625-10.471m-5.356-2.549 5.356 2.549m-5.356-2.549 24.57 4.532m-19.214-1.983 14.633 2.468m-55.275 83.9-6.587-25.806m6.587 25.806 17.464 16.692m-17.464-16.692 12.458 3.944m-19.045-29.75 11.918 3.605 7.127 26.144M27.64 252.049l6.24-27.876m10.475 2.987-10.475-2.986 17.365-22.215m-6.89 25.201-4.798 28.496 13.98 1.897m-9.182-30.393 12.26 1.498-3.079 28.894m-9.18-30.392 15.214-22.655.173-.256 9.905 1.097m-22.963 76.453L63.65 298.41m-16.965-16.611 14.611 2.154m0-.001-7.76-26.4m0 0 15.816.119m0 0 17.377-1.693m-17.377 1.693 1.108-29.058m0-.001-13.845.045 13.033-23.312m0 0 11.149-.133m-11.15.133 19.262-11.381m-8.112 11.248 12.2-1.374m-12.2 1.374 16.567-11.383m-19.54 90.409-8.472-26.567m8.472 26.567 15.602 16.692 17.315-1.454m-32.917-15.238 18.156-1.622m-9.25-26.638 9.25 26.639m-9.25-26.639 18.621-3.5m-18.621 3.5-1.08-28.976m-15.19 1.611 15.19-1.61m-15.19 1.61 10.337-23.4m29.944 94.263 16.109 2.653m-16.109-2.653 18.527-3.276m-18.527 3.276-14.761-16.86m0 0 19.454-3.528m-10.083-26.61 19.514-5.261m-19.514 5.261-3.442-28.643m-16.259 3.167 16.26-3.166m-16.26 3.166 7.346-23.164m0 0 .174-.034 12.857-2.569m0 0 13.622-3.795m9.619 98.76 19.385-5.055m-19.385 5.055-13.834-17.112m0 0 20.379-5.389m-20.38 5.391-10.082-26.611m19.514-5.262 20.021-6.933m-20.021 6.933-5.931-28.06-8.776 2.411-.253.07-.632.174-.052.014-7.312 2.009m0 0 4.118-22.601m13.622-3.794-.715 21.718 17.46-6.112m-16.745-15.606 13.957-4.922m-13.957 4.922 7.018-9.527m21.986 103.232 19.865-6.753m-19.865 6.753-12.84-17.446m0 0 20.904-7.161m-20.904 7.162-10.948-26.483m11.529-34.171 17.555-7.433m-17.555 7.433-2.787-20.527m-.001-.001 3.551-8.314m-3.551 8.314 14.025-5.96m20.887 97.834 8.505 4.698m-8.505-4.698-11.801-17.854m0 0 21.008-8.803-12.708-25.932m-8.3 34.735-11.83-26.255m20.13-8.48-20.131 8.48-8.492-27.238m17.555-7.432 11.068 26.191 19.833-9.86 13.56 25.52m-27.16-50.465-17.301 8.613-6.209-18.724-.109-.331m50.779 60.907-20.684 10.272 10.739 18.332 19.627-9.738 3.205 7.132m-12.887-25.998 19.938-11.533M171.248 197l13.6 24.943 19.131-11.042 14.368 25.03m-60.284-61.38 3.183 4.813.204.308 5.309-3.053.153-.09 7.889-4.537 13.148 15.387 15.773-10.437m18.301 21.96-.169-.204-18.131-21.755m18.3 21.959-18.044 11.999-16.029-23.521m34.073 11.522 15.112 24.474m-15.112-24.474 16.599-12.709m-1.487 37.182-18.787 12.556L227 255.375l17.811-11.946-1.721 10.184m-44.011-98.751-11.656 8.806-9.848-1.129m21.504-7.677 7.812-6.801.009-.008 2.651-2.308m-10.472 9.117-12.731 1.061m68.049 54.132-17.262 13.32 7.675 20.054 16.36-12.693-3.903 11.857m-2.87-32.536-15.775-23.864m15.775 23.864 6.773 20.68 14.594-13.181m-21.367-7.499 15.402-13.808m-38.516-41.777-8.767 7.692-.945.83-.171.149-3.141 2.757-19.18-11.036m32.204-.392 22.175 18.563 12.796-13.344m-34.971-5.219-21.732-8.726m0-.001 9.098-9.252m-9.098 9.252-15.306 3.321m81.519 68.49-5.965-21.307m0-.002-16.342-23.214m-34.808-36.54 23.906 6.389 23.699 16.807 2.697 3.619.016.022 14.089 18.901 5.268 21.92-7.48 15.302m-62.195-82.96-17.52 5.604m68.799 89.034 5.836-13.576"/><defs><linearGradient id="a" x1="271.934" x2="56.487" y1="63.177" y2="336.693" gradientUnits="userSpaceOnUse"><stop stop-color="#E9EBF1"/><stop offset="1" stop-color="#E9EBF1" stop-opacity="0"/></linearGradient></defs></svg>