<svg xmlns="http://www.w3.org/2000/svg" xmlns:xlink="http://www.w3.org/1999/xlink" width="444" zoomAndPan="magnify" viewBox="0 0 333 138.749998" height="185" preserveAspectRatio="xMidYMid meet" version="1.0"><defs><g/><clipPath id="61d091a855"><path d="M 0.300781 0 L 332.699219 0 L 332.699219 138.5 L 0.300781 138.5 Z M 0.300781 0 " clip-rule="nonzero"/></clipPath><clipPath id="6949e2de94"><path d="M 0.300781 20 L 332.699219 20 L 332.699219 118 L 0.300781 118 Z M 0.300781 20 " clip-rule="nonzero"/></clipPath><clipPath id="bc2b205be3"><path d="M 0.300781 0.601562 L 332.363281 0.601562 L 332.363281 97.640625 L 0.300781 97.640625 Z M 0.300781 0.601562 " clip-rule="nonzero"/></clipPath><clipPath id="24b2151a59"><path d="M 7.785156 0.601562 L 324.550781 0.601562 C 328.683594 0.601562 332.035156 3.953125 332.035156 8.085938 L 332.035156 90.15625 C 332.035156 94.289062 328.683594 97.640625 324.550781 97.640625 L 7.785156 97.640625 C 3.652344 97.640625 0.300781 94.289062 0.300781 90.15625 L 0.300781 8.085938 C 0.300781 3.953125 3.652344 0.601562 7.785156 0.601562 Z M 7.785156 0.601562 " clip-rule="nonzero"/></clipPath><clipPath id="0515430664"><path d="M 0.300781 0.601562 L 332 0.601562 L 332 97.640625 L 0.300781 97.640625 Z M 0.300781 0.601562 " clip-rule="nonzero"/></clipPath><clipPath id="2f05dfc4ce"><path d="M 7.785156 0.601562 L 324.550781 0.601562 C 328.683594 0.601562 332.035156 3.953125 332.035156 8.085938 L 332.035156 90.15625 C 332.035156 94.289062 328.683594 97.640625 324.550781 97.640625 L 7.785156 97.640625 C 3.652344 97.640625 0.300781 94.289062 0.300781 90.15625 L 0.300781 8.085938 C 0.300781 3.953125 3.652344 0.601562 7.785156 0.601562 Z M 7.785156 0.601562 " clip-rule="nonzero"/></clipPath><clipPath id="e3a1b8e3ce"><rect x="0" width="333" y="0" height="98"/></clipPath><clipPath id="cca4d3d346"><rect x="0" width="333" y="0" height="98"/></clipPath></defs><g clip-path="url(#61d091a855)"><path fill="#ffffff" d="M 0.300781 0 L 332.699219 0 L 332.699219 138.5 L 0.300781 138.5 Z M 0.300781 0 " fill-opacity="1" fill-rule="nonzero"/></g><g clip-path="url(#6949e2de94)"><g transform="matrix(1, 0, 0, 1, 0, 20)"><g clip-path="url(#cca4d3d346)"><g clip-path="url(#bc2b205be3)"><g clip-path="url(#24b2151a59)"><g transform="matrix(1, 0, 0, 1, 0, -0.000000000000021316)"><g clip-path="url(#e3a1b8e3ce)"><g clip-path="url(#0515430664)"><g clip-path="url(#2f05dfc4ce)"><path fill="#ffffff" d="M 0.300781 0.601562 L 331.984375 0.601562 L 331.984375 97.640625 L 0.300781 97.640625 Z M 0.300781 0.601562 " fill-opacity="1" fill-rule="nonzero"/></g></g></g></g></g></g><g fill="#000000" fill-opacity="1"><g transform="translate(33.167798, 65.143306)"><g><path d="M 3.8125 0 L 3.8125 -48.890625 L 9.5625 -48.890625 L 9.5625 -28.078125 L 43.546875 -28.078125 L 43.546875 -48.890625 L 49.296875 -48.890625 L 49.296875 0 L 43.546875 0 L 43.546875 -23.015625 L 9.5625 -23.015625 L 9.5625 0 Z M 3.8125 0 "/></g></g></g><g fill="#000000" fill-opacity="1"><g transform="translate(86.277522, 65.143306)"><g><path d="M 19.28125 1.390625 C 14.144531 1.390625 10.109375 0.00390625 7.171875 -2.765625 C 4.242188 -5.546875 2.78125 -9.382812 2.78125 -14.28125 L 2.78125 -35.015625 L 8.109375 -35.015625 L 8.109375 -14.84375 C 8.109375 -11.28125 9.207031 -8.46875 11.40625 -6.40625 C 13.601562 -4.351562 16.617188 -3.328125 20.453125 -3.328125 C 25.265625 -3.328125 29.09375 -4.632812 31.9375 -7.25 C 34.78125 -9.863281 36.203125 -13.363281 36.203125 -17.75 L 36.203125 -35.015625 L 41.46875 -35.015625 L 41.46875 0 L 36.6875 0 L 36.203125 -6.859375 L 36.125 -6.859375 C 34.550781 -4.273438 32.320312 -2.253906 29.4375 -0.796875 C 26.550781 0.660156 23.164062 1.390625 19.28125 1.390625 Z M 19.28125 1.390625 "/></g></g></g><g fill="#000000" fill-opacity="1"><g transform="translate(130.8592, 65.143306)"><g><path d="M 23.5 1.390625 C 19.300781 1.390625 15.59375 0.59375 12.375 -1 C 9.164062 -2.59375 6.644531 -4.8125 4.8125 -7.65625 C 2.988281 -10.5 2.078125 -13.769531 2.078125 -17.46875 C 2.078125 -21.21875 2.976562 -24.515625 4.78125 -27.359375 C 6.582031 -30.203125 9.085938 -32.421875 12.296875 -34.015625 C 15.515625 -35.609375 19.226562 -36.40625 23.4375 -36.40625 C 27.269531 -36.40625 30.703125 -35.664062 33.734375 -34.1875 C 36.765625 -32.707031 39.039062 -30.671875 40.5625 -28.078125 L 40.640625 -28.078125 L 40.640625 -50.96875 L 45.96875 -50.96875 L 45.96875 0 L 41.328125 0 L 40.84375 -7.078125 L 40.78125 -7.078125 C 39.25 -4.484375 36.957031 -2.421875 33.90625 -0.890625 C 30.851562 0.628906 27.382812 1.390625 23.5 1.390625 Z M 24.125 -3.390625 C 27.414062 -3.390625 30.316406 -4.003906 32.828125 -5.234375 C 35.347656 -6.460938 37.3125 -8.140625 38.71875 -10.265625 C 40.132812 -12.390625 40.84375 -14.789062 40.84375 -17.46875 C 40.84375 -20.25 40.132812 -22.691406 38.71875 -24.796875 C 37.3125 -26.898438 35.347656 -28.550781 32.828125 -29.75 C 30.316406 -30.945312 27.414062 -31.546875 24.125 -31.546875 C 20.84375 -31.546875 17.929688 -30.945312 15.390625 -29.75 C 12.847656 -28.550781 10.867188 -26.898438 9.453125 -24.796875 C 8.046875 -22.691406 7.34375 -20.25 7.34375 -17.46875 C 7.34375 -14.75 8.0625 -12.320312 9.5 -10.1875 C 10.9375 -8.0625 12.910156 -6.394531 15.421875 -5.1875 C 17.941406 -3.988281 20.84375 -3.390625 24.125 -3.390625 Z M 24.125 -3.390625 "/></g></g></g><g fill="#000000" fill-opacity="1"><g transform="translate(179.947561, 65.143306)"><g><path d="M 23.5 1.390625 C 19.300781 1.390625 15.59375 0.59375 12.375 -1 C 9.164062 -2.59375 6.644531 -4.8125 4.8125 -7.65625 C 2.988281 -10.5 2.078125 -13.769531 2.078125 -17.46875 C 2.078125 -21.21875 2.976562 -24.515625 4.78125 -27.359375 C 6.582031 -30.203125 9.085938 -32.421875 12.296875 -34.015625 C 15.515625 -35.609375 19.226562 -36.40625 23.4375 -36.40625 C 27.269531 -36.40625 30.703125 -35.664062 33.734375 -34.1875 C 36.765625 -32.707031 39.039062 -30.671875 40.5625 -28.078125 L 40.640625 -28.078125 L 40.640625 -50.96875 L 45.96875 -50.96875 L 45.96875 0 L 41.328125 0 L 40.84375 -7.078125 L 40.78125 -7.078125 C 39.25 -4.484375 36.957031 -2.421875 33.90625 -0.890625 C 30.851562 0.628906 27.382812 1.390625 23.5 1.390625 Z M 24.125 -3.390625 C 27.414062 -3.390625 30.316406 -4.003906 32.828125 -5.234375 C 35.347656 -6.460938 37.3125 -8.140625 38.71875 -10.265625 C 40.132812 -12.390625 40.84375 -14.789062 40.84375 -17.46875 C 40.84375 -20.25 40.132812 -22.691406 38.71875 -24.796875 C 37.3125 -26.898438 35.347656 -28.550781 32.828125 -29.75 C 30.316406 -30.945312 27.414062 -31.546875 24.125 -31.546875 C 20.84375 -31.546875 17.929688 -30.945312 15.390625 -29.75 C 12.847656 -28.550781 10.867188 -26.898438 9.453125 -24.796875 C 8.046875 -22.691406 7.34375 -20.25 7.34375 -17.46875 C 7.34375 -14.75 8.0625 -12.320312 9.5 -10.1875 C 10.9375 -8.0625 12.910156 -6.394531 15.421875 -5.1875 C 17.941406 -3.988281 20.84375 -3.390625 24.125 -3.390625 Z M 24.125 -3.390625 "/></g></g></g><g fill="#000000" fill-opacity="1"><g transform="translate(229.035923, 65.143306)"><g><path d="M 3.125 0 L 3.125 -50.96875 L 8.390625 -50.96875 L 8.390625 0 Z M 3.125 0 "/></g></g></g><g fill="#000000" fill-opacity="1"><g transform="translate(240.545341, 65.143306)"><g><path d="M 24.96875 1.390625 C 20.570312 1.390625 16.648438 0.554688 13.203125 -1.109375 C 9.765625 -2.773438 7.050781 -5.0625 5.0625 -7.96875 C 3.070312 -10.882812 2.078125 -14.191406 2.078125 -17.890625 C 2.078125 -21.492188 2.988281 -24.679688 4.8125 -27.453125 C 6.644531 -30.234375 9.15625 -32.421875 12.34375 -34.015625 C 15.53125 -35.609375 19.179688 -36.40625 23.296875 -36.40625 C 27.367188 -36.40625 30.941406 -35.609375 34.015625 -34.015625 C 37.085938 -32.421875 39.5 -30.222656 41.25 -27.421875 C 43.007812 -24.628906 43.890625 -21.429688 43.890625 -17.828125 C 43.890625 -17.503906 43.890625 -17.132812 43.890625 -16.71875 C 43.890625 -16.300781 43.867188 -15.90625 43.828125 -15.53125 L 7.90625 -15.53125 C 8.1875 -13.175781 9.125 -11.097656 10.71875 -9.296875 C 12.3125 -7.492188 14.367188 -6.082031 16.890625 -5.0625 C 19.410156 -4.039062 22.191406 -3.53125 25.234375 -3.53125 C 28.796875 -3.53125 32.101562 -4.1875 35.15625 -5.5 C 38.207031 -6.820312 40.453125 -8.476562 41.890625 -10.46875 L 45.703125 -7.625 C 44.546875 -5.875 42.898438 -4.316406 40.765625 -2.953125 C 38.640625 -1.585938 36.222656 -0.523438 33.515625 0.234375 C 30.816406 1.003906 27.96875 1.390625 24.96875 1.390625 Z M 7.828125 -20.171875 L 38.28125 -20.171875 C 38.050781 -22.535156 37.238281 -24.5625 35.84375 -26.25 C 34.457031 -27.9375 32.664062 -29.21875 30.46875 -30.09375 C 28.28125 -30.96875 25.820312 -31.40625 23.09375 -31.40625 C 20.40625 -31.40625 17.953125 -30.929688 15.734375 -29.984375 C 13.515625 -29.035156 11.710938 -27.71875 10.328125 -26.03125 C 8.941406 -24.34375 8.109375 -22.390625 7.828125 -20.171875 Z M 7.828125 -20.171875 "/></g></g></g><g fill="#000000" fill-opacity="1"><g transform="translate(286.305276, 65.143306)"><g><path d="M 6.375 0.828125 C 5.21875 0.828125 4.28125 0.472656 3.5625 -0.234375 C 2.851562 -0.953125 2.5 -1.890625 2.5 -3.046875 C 2.5 -4.160156 2.851562 -5.070312 3.5625 -5.78125 C 4.28125 -6.5 5.21875 -6.859375 6.375 -6.859375 C 7.53125 -6.859375 8.476562 -6.5 9.21875 -5.78125 C 9.957031 -5.070312 10.328125 -4.160156 10.328125 -3.046875 C 10.328125 -1.890625 9.957031 -0.953125 9.21875 -0.234375 C 8.476562 0.472656 7.53125 0.828125 6.375 0.828125 Z M 6.375 0.828125 "/></g></g></g></g></g></g></svg>