<svg xmlns="http://www.w3.org/2000/svg" xmlns:xlink="http://www.w3.org/1999/xlink" width="421" zoomAndPan="magnify" viewBox="0 0 315.75 164.249993" height="219" preserveAspectRatio="xMidYMid meet" version="1.0"><defs><g/><clipPath id="d703096ff7"><path d="M 125.402344 68.703125 L 160.015625 68.703125 L 160.015625 103.320312 L 125.402344 103.320312 Z M 125.402344 68.703125 " clip-rule="nonzero"/></clipPath><clipPath id="b70f93b5a6"><path d="M 142.707031 68.703125 C 133.148438 68.703125 125.402344 76.453125 125.402344 86.011719 C 125.402344 95.570312 133.148438 103.320312 142.707031 103.320312 C 152.265625 103.320312 160.015625 95.570312 160.015625 86.011719 C 160.015625 76.453125 152.265625 68.703125 142.707031 68.703125 Z M 142.707031 68.703125 " clip-rule="nonzero"/></clipPath><clipPath id="cd4ae38cb6"><path d="M 0.402344 0.703125 L 35.015625 0.703125 L 35.015625 35.320312 L 0.402344 35.320312 Z M 0.402344 0.703125 " clip-rule="nonzero"/></clipPath><clipPath id="70d6807b7d"><path d="M 17.707031 0.703125 C 8.148438 0.703125 0.402344 8.453125 0.402344 18.011719 C 0.402344 27.570312 8.148438 35.320312 17.707031 35.320312 C 27.265625 35.320312 35.015625 27.570312 35.015625 18.011719 C 35.015625 8.453125 27.265625 0.703125 17.707031 0.703125 Z M 17.707031 0.703125 " clip-rule="nonzero"/></clipPath><clipPath id="cbc70e6bda"><rect x="0" width="36" y="0" height="36"/></clipPath><clipPath id="6dfcb193f9"><path d="M 123.398438 71.691406 L 154.753906 71.691406 L 154.753906 103.046875 L 123.398438 103.046875 Z M 123.398438 71.691406 " clip-rule="nonzero"/></clipPath></defs><g fill="#282a32" fill-opacity="1"><g transform="translate(19.276252, 109.975495)"><g><path d="M 17.0625 0 L 5.375 0 L 5.375 -66.078125 L 17.0625 -66.078125 L 17.0625 -42.4375 C 19.019531 -45.15625 21.050781 -47.03125 23.15625 -48.0625 C 25.269531 -49.101562 27.628906 -49.625 30.234375 -49.625 C 34.671875 -49.625 38.046875 -48.828125 40.359375 -47.234375 C 42.671875 -45.648438 44.347656 -43.734375 45.390625 -41.484375 C 46.421875 -39.347656 47.023438 -37.164062 47.203125 -34.9375 C 47.378906 -32.71875 47.46875 -30.394531 47.46875 -27.96875 L 47.46875 0 L 35.765625 0 L 35.765625 -28.140625 C 35.765625 -32.878906 34.988281 -36.113281 33.4375 -37.84375 C 32.050781 -39.289062 30 -40.015625 27.28125 -40.015625 C 23.9375 -40.015625 21.453125 -39.03125 19.828125 -37.0625 C 18.847656 -35.914062 18.140625 -34.390625 17.703125 -32.484375 C 17.273438 -30.578125 17.0625 -28.003906 17.0625 -24.765625 Z M 17.0625 0 "/></g></g></g><g fill="#282a32" fill-opacity="1"><g transform="translate(66.908033, 109.975495)"><g><path d="M 22.265625 0.953125 C 14.753906 0.953125 9.703125 -1.734375 7.109375 -7.109375 C 6.347656 -8.722656 5.804688 -10.492188 5.484375 -12.421875 C 5.171875 -14.359375 5.015625 -17.085938 5.015625 -20.609375 L 5.015625 -48.59375 L 16.71875 -48.59375 L 16.71875 -20.53125 C 16.71875 -18.039062 16.90625 -16.03125 17.28125 -14.5 C 17.65625 -12.976562 18.242188 -11.753906 19.046875 -10.828125 C 20.429688 -9.378906 22.484375 -8.65625 25.203125 -8.65625 C 28.554688 -8.65625 31.039062 -9.640625 32.65625 -11.609375 C 33.632812 -12.765625 34.335938 -14.304688 34.765625 -16.234375 C 35.203125 -18.171875 35.421875 -20.726562 35.421875 -23.90625 L 35.421875 -48.59375 L 47.109375 -48.59375 L 47.109375 0 L 35.421875 0 L 35.421875 -6.15625 C 33.628906 -3.664062 31.707031 -1.859375 29.65625 -0.734375 C 27.613281 0.390625 25.148438 0.953125 22.265625 0.953125 Z M 22.265625 0.953125 "/></g></g></g><g fill="#282a32" fill-opacity="1"><g transform="translate(114.626416, 109.975495)"><g><path d="M 24.859375 0.953125 C 20.640625 0.953125 16.910156 -0.113281 13.671875 -2.25 C 10.441406 -4.382812 7.929688 -7.359375 6.140625 -11.171875 C 4.359375 -14.984375 3.46875 -19.375 3.46875 -24.34375 C 3.46875 -29.300781 4.359375 -33.6875 6.140625 -37.5 C 7.929688 -41.3125 10.441406 -44.285156 13.671875 -46.421875 C 16.910156 -48.554688 20.640625 -49.625 24.859375 -49.625 C 27.742188 -49.625 30.269531 -49.117188 32.4375 -48.109375 C 34.601562 -47.097656 36.664062 -45.207031 38.625 -42.4375 L 38.625 -66.078125 L 50.3125 -66.078125 L 50.3125 0 L 38.625 0 L 38.625 -6.15625 C 36.664062 -3.4375 34.601562 -1.570312 32.4375 -0.5625 C 30.269531 0.445312 27.742188 0.953125 24.859375 0.953125 Z M 27.546875 -9.09375 C 31.296875 -9.09375 34.320312 -10.503906 36.625 -13.328125 C 38.9375 -16.160156 40.09375 -19.832031 40.09375 -24.34375 C 40.09375 -28.84375 38.9375 -32.503906 36.625 -35.328125 C 34.320312 -38.160156 31.296875 -39.578125 27.546875 -39.578125 C 23.847656 -39.578125 20.875 -38.144531 18.625 -35.28125 C 16.375 -32.425781 15.25 -28.78125 15.25 -24.34375 C 15.25 -19.945312 16.375 -16.304688 18.625 -13.421875 C 20.875 -10.535156 23.847656 -9.09375 27.546875 -9.09375 Z M 27.546875 -9.09375 "/></g></g></g><g clip-path="url(#d703096ff7)"><g clip-path="url(#b70f93b5a6)"><g transform="matrix(1, 0, 0, 1, 125, 68)"><g clip-path="url(#cbc70e6bda)"><g clip-path="url(#cd4ae38cb6)"><g clip-path="url(#70d6807b7d)"><path fill="#282a32" d="M 0.402344 0.703125 L 35.015625 0.703125 L 35.015625 35.320312 L 0.402344 35.320312 Z M 0.402344 0.703125 " fill-opacity="1" fill-rule="nonzero"/></g></g></g></g></g></g><g clip-path="url(#6dfcb193f9)"><path fill="#ffffff" d="M 155.023438 87.503906 C 143.308594 92.707031 144.414062 91.601562 139.210938 103.316406 C 134.007812 91.601562 135.113281 92.707031 123.398438 87.503906 C 135.113281 82.300781 134.007812 83.40625 139.210938 71.691406 C 144.414062 83.40625 143.308594 82.300781 155.023438 87.503906 Z M 155.023438 87.503906 " fill-opacity="1" fill-rule="nonzero"/></g><g fill="#282a32" fill-opacity="1"><g transform="translate(226.921067, 111.475397)"><g><path d="M 28.390625 0.96875 C 23.359375 0.96875 18.957031 -0.125 15.1875 -2.3125 C 11.425781 -4.507812 8.507812 -7.503906 6.4375 -11.296875 C 4.363281 -15.097656 3.328125 -19.421875 3.328125 -24.265625 C 3.328125 -27.484375 3.820312 -30.640625 4.8125 -33.734375 C 5.8125 -36.828125 7.332031 -39.613281 9.375 -42.09375 C 11.414062 -44.570312 13.984375 -46.539062 17.078125 -48 C 20.179688 -49.46875 23.832031 -50.203125 28.03125 -50.203125 C 31.1875 -50.203125 34.238281 -49.703125 37.1875 -48.703125 C 40.132812 -47.710938 42.773438 -46.179688 45.109375 -44.109375 C 47.453125 -42.035156 49.304688 -39.390625 50.671875 -36.171875 C 52.046875 -32.960938 52.734375 -29.140625 52.734375 -24.703125 L 52.734375 -22.171875 L 15.59375 -22.171875 C 15.707031 -21.117188 15.941406 -20.078125 16.296875 -19.046875 C 16.648438 -18.023438 17.03125 -17.140625 17.4375 -16.390625 C 18.601562 -14.109375 20.164062 -12.335938 22.125 -11.078125 C 24.082031 -9.828125 26.316406 -9.203125 28.828125 -9.203125 C 31.628906 -9.203125 33.976562 -9.929688 35.875 -11.390625 C 37.769531 -12.847656 39.097656 -14.570312 39.859375 -16.5625 L 51.953125 -16.5625 C 51.015625 -13.40625 49.523438 -10.5 47.484375 -7.84375 C 45.441406 -5.1875 42.84375 -3.050781 39.6875 -1.4375 C 36.53125 0.164062 32.765625 0.96875 28.390625 0.96875 Z M 16.125 -31.015625 L 40.65625 -31.015625 C 40.59375 -31.660156 40.429688 -32.390625 40.171875 -33.203125 C 39.910156 -34.023438 39.457031 -34.8125 38.8125 -35.5625 C 37.695312 -37.320312 36.21875 -38.640625 34.375 -39.515625 C 32.539062 -40.390625 30.546875 -40.828125 28.390625 -40.828125 C 26.222656 -40.828125 24.25 -40.390625 22.46875 -39.515625 C 20.6875 -38.640625 19.210938 -37.320312 18.046875 -35.5625 C 17.398438 -34.8125 16.945312 -34.023438 16.6875 -33.203125 C 16.425781 -32.390625 16.238281 -31.660156 16.125 -31.015625 Z M 16.125 -31.015625 "/></g></g></g><g fill="#282a32" fill-opacity="1"><g transform="translate(275.805782, 111.475397)"><g><path d="M 10.859375 0.96875 C 8.878906 0.96875 7.1875 0.28125 5.78125 -1.09375 C 4.375 -2.46875 3.671875 -4.144531 3.671875 -6.125 C 3.671875 -8 4.382812 -9.617188 5.8125 -10.984375 C 7.25 -12.359375 8.929688 -13.046875 10.859375 -13.046875 C 12.734375 -13.046875 14.34375 -12.359375 15.6875 -10.984375 C 17.03125 -9.617188 17.703125 -8 17.703125 -6.125 C 17.703125 -4.144531 17.03125 -2.46875 15.6875 -1.09375 C 14.34375 0.28125 12.734375 0.96875 10.859375 0.96875 Z M 10.859375 0.96875 "/></g></g></g><g fill="#6b840a" fill-opacity="1"><g transform="translate(166.624158, 111.616052)"><g><path d="M 40.296875 -67.875 C 41.742188 -67.875 43.015625 -67.441406 44.109375 -66.578125 C 45.210938 -65.722656 45.765625 -64.453125 45.765625 -62.765625 C 45.765625 -61.078125 44.828125 -58.429688 42.953125 -54.828125 C 41.085938 -51.222656 38.84375 -47.546875 36.21875 -43.796875 C 33.59375 -40.046875 30.625 -36.054688 27.3125 -31.828125 C 22.0625 -25.140625 17.023438 -19.128906 12.203125 -13.796875 C 12.171875 -13.429688 12.039062 -12.757812 11.8125 -11.78125 C 11.59375 -10.800781 11.484375 -9.8125 11.484375 -8.8125 C 11.484375 -7.820312 11.941406 -6.925781 12.859375 -6.125 C 13.785156 -5.320312 14.925781 -4.921875 16.28125 -4.921875 C 17.632812 -4.921875 19.085938 -5.40625 20.640625 -6.375 C 22.191406 -7.34375 23.539062 -8.414062 24.6875 -9.59375 C 27.707031 -12.695312 29.578125 -14.25 30.296875 -14.25 C 31.015625 -14.25 31.375 -13.144531 31.375 -10.9375 L 31.375 -10.03125 C 31.375 -8.863281 31.164062 -8.007812 30.75 -7.46875 C 28.21875 -4.351562 25.367188 -2.035156 22.203125 -0.515625 C 19.035156 1.003906 16.035156 1.765625 13.203125 1.765625 C 10.367188 1.765625 8.210938 0.898438 6.734375 -0.828125 C 5.253906 -2.566406 4.515625 -4.941406 4.515625 -7.953125 C 4.515625 -13.835938 6.085938 -20.75 9.234375 -28.6875 C 12.390625 -36.632812 15.941406 -43.394531 19.890625 -48.96875 C 28.785156 -61.570312 35.585938 -67.875 40.296875 -67.875 Z M 38.25 -60.375 C 38.25 -60.820312 38.097656 -61.046875 37.796875 -61.046875 C 36.742188 -61.046875 33.972656 -58.03125 29.484375 -52 C 24.992188 -45.96875 21.742188 -41.160156 19.734375 -37.578125 C 17.734375 -33.992188 15.84375 -29.488281 14.0625 -24.0625 C 17.625 -28.28125 22.546875 -34.859375 28.828125 -43.796875 C 35.109375 -52.734375 38.25 -58.257812 38.25 -60.375 Z M 38.25 -60.375 "/></g></g></g><g fill="#6b840a" fill-opacity="1"><g transform="translate(191.516451, 111.616052)"><g><path d="M 40.296875 -67.875 C 41.742188 -67.875 43.015625 -67.441406 44.109375 -66.578125 C 45.210938 -65.722656 45.765625 -64.453125 45.765625 -62.765625 C 45.765625 -61.078125 44.828125 -58.429688 42.953125 -54.828125 C 41.085938 -51.222656 38.84375 -47.546875 36.21875 -43.796875 C 33.59375 -40.046875 30.625 -36.054688 27.3125 -31.828125 C 22.0625 -25.140625 17.023438 -19.128906 12.203125 -13.796875 C 12.171875 -13.429688 12.039062 -12.757812 11.8125 -11.78125 C 11.59375 -10.800781 11.484375 -9.8125 11.484375 -8.8125 C 11.484375 -7.820312 11.941406 -6.925781 12.859375 -6.125 C 13.785156 -5.320312 14.925781 -4.921875 16.28125 -4.921875 C 17.632812 -4.921875 19.085938 -5.40625 20.640625 -6.375 C 22.191406 -7.34375 23.539062 -8.414062 24.6875 -9.59375 C 27.707031 -12.695312 29.578125 -14.25 30.296875 -14.25 C 31.015625 -14.25 31.375 -13.144531 31.375 -10.9375 L 31.375 -10.03125 C 31.375 -8.863281 31.164062 -8.007812 30.75 -7.46875 C 28.21875 -4.351562 25.367188 -2.035156 22.203125 -0.515625 C 19.035156 1.003906 16.035156 1.765625 13.203125 1.765625 C 10.367188 1.765625 8.210938 0.898438 6.734375 -0.828125 C 5.253906 -2.566406 4.515625 -4.941406 4.515625 -7.953125 C 4.515625 -13.835938 6.085938 -20.75 9.234375 -28.6875 C 12.390625 -36.632812 15.941406 -43.394531 19.890625 -48.96875 C 28.785156 -61.570312 35.585938 -67.875 40.296875 -67.875 Z M 38.25 -60.375 C 38.25 -60.820312 38.097656 -61.046875 37.796875 -61.046875 C 36.742188 -61.046875 33.972656 -58.03125 29.484375 -52 C 24.992188 -45.96875 21.742188 -41.160156 19.734375 -37.578125 C 17.734375 -33.992188 15.84375 -29.488281 14.0625 -24.0625 C 17.625 -28.28125 22.546875 -34.859375 28.828125 -43.796875 C 35.109375 -52.734375 38.25 -58.257812 38.25 -60.375 Z M 38.25 -60.375 "/></g></g></g></svg>