<svg xmlns="http://www.w3.org/2000/svg" xmlns:xlink="http://www.w3.org/1999/xlink" width="421" zoomAndPan="magnify" viewBox="0 0 315.75 162.749997" height="217" preserveAspectRatio="xMidYMid meet" version="1.0"><defs><g/><clipPath id="553cfd8088"><rect x="0" width="150" y="0" height="109"/></clipPath><clipPath id="fa50e16c93"><path d="M 125.535156 68.910156 L 160.257812 68.910156 L 160.257812 103.632812 L 125.535156 103.632812 Z M 125.535156 68.910156 " clip-rule="nonzero"/></clipPath><clipPath id="7207eb24e5"><path d="M 142.894531 68.910156 C 133.308594 68.910156 125.535156 76.683594 125.535156 86.269531 C 125.535156 95.859375 133.308594 103.632812 142.894531 103.632812 C 152.484375 103.632812 160.257812 95.859375 160.257812 86.269531 C 160.257812 76.683594 152.484375 68.910156 142.894531 68.910156 Z M 142.894531 68.910156 " clip-rule="nonzero"/></clipPath><clipPath id="69a9eb1646"><path d="M 0.535156 0.910156 L 35.257812 0.910156 L 35.257812 35.632812 L 0.535156 35.632812 Z M 0.535156 0.910156 " clip-rule="nonzero"/></clipPath><clipPath id="1cc37a0b3d"><path d="M 17.894531 0.910156 C 8.308594 0.910156 0.535156 8.683594 0.535156 18.269531 C 0.535156 27.859375 8.308594 35.632812 17.894531 35.632812 C 27.484375 35.632812 35.257812 27.859375 35.257812 18.269531 C 35.257812 8.683594 27.484375 0.910156 17.894531 0.910156 Z M 17.894531 0.910156 " clip-rule="nonzero"/></clipPath><clipPath id="45b7d56785"><rect x="0" width="36" y="0" height="36"/></clipPath><clipPath id="017afbbb0b"><path d="M 123.707031 71.90625 L 155.15625 71.90625 L 155.15625 103.359375 L 123.707031 103.359375 Z M 123.707031 71.90625 " clip-rule="nonzero"/></clipPath><clipPath id="46b3732154"><rect x="0" width="72" y="0" height="110"/></clipPath><clipPath id="4ee7032833"><rect x="0" width="74" y="0" height="120"/></clipPath></defs><g transform="matrix(1, 0, 0, 1, 18, 24)"><g clip-path="url(#553cfd8088)"><g fill="#ffffff" fill-opacity="1"><g transform="translate(0.24688, 86.107283)"><g><path d="M 17.3125 0 L 5.453125 0 L 5.453125 -67.03125 L 17.3125 -67.03125 L 17.3125 -43.046875 C 19.300781 -45.804688 21.363281 -47.710938 23.5 -48.765625 C 25.632812 -49.816406 28.019531 -50.34375 30.65625 -50.34375 C 35.164062 -50.34375 38.59375 -49.535156 40.9375 -47.921875 C 43.28125 -46.316406 44.976562 -44.367188 46.03125 -42.078125 C 47.09375 -39.910156 47.707031 -37.695312 47.875 -35.4375 C 48.050781 -33.1875 48.140625 -30.832031 48.140625 -28.375 L 48.140625 0 L 36.28125 0 L 36.28125 -28.546875 C 36.28125 -33.359375 35.488281 -36.640625 33.90625 -38.390625 C 32.507812 -39.859375 30.429688 -40.59375 27.671875 -40.59375 C 24.273438 -40.59375 21.757812 -39.597656 20.125 -37.609375 C 19.125 -36.429688 18.40625 -34.875 17.96875 -32.9375 C 17.53125 -31.007812 17.3125 -28.40625 17.3125 -25.125 Z M 17.3125 0 "/></g></g></g><g fill="#ffffff" fill-opacity="1"><g transform="translate(48.559571, 86.107283)"><g><path d="M 22.578125 0.96875 C 14.960938 0.96875 9.835938 -1.753906 7.203125 -7.203125 C 6.441406 -8.847656 5.898438 -10.648438 5.578125 -12.609375 C 5.253906 -14.566406 5.09375 -17.332031 5.09375 -20.90625 L 5.09375 -49.296875 L 16.953125 -49.296875 L 16.953125 -20.828125 C 16.953125 -18.304688 17.140625 -16.269531 17.515625 -14.71875 C 17.898438 -13.164062 18.503906 -11.921875 19.328125 -10.984375 C 20.734375 -9.515625 22.8125 -8.78125 25.5625 -8.78125 C 28.957031 -8.78125 31.476562 -9.773438 33.125 -11.765625 C 34.113281 -12.941406 34.828125 -14.507812 35.265625 -16.46875 C 35.710938 -18.4375 35.9375 -21.03125 35.9375 -24.25 L 35.9375 -49.296875 L 47.796875 -49.296875 L 47.796875 0 L 35.9375 0 L 35.9375 -6.234375 C 34.113281 -3.710938 32.160156 -1.878906 30.078125 -0.734375 C 28.003906 0.398438 25.503906 0.96875 22.578125 0.96875 Z M 22.578125 0.96875 "/></g></g></g><g fill="#ffffff" fill-opacity="1"><g transform="translate(96.960094, 86.107283)"><g><path d="M 25.21875 0.96875 C 20.9375 0.96875 17.15625 -0.113281 13.875 -2.28125 C 10.601562 -4.445312 8.054688 -7.460938 6.234375 -11.328125 C 4.421875 -15.191406 3.515625 -19.644531 3.515625 -24.6875 C 3.515625 -29.726562 4.421875 -34.179688 6.234375 -38.046875 C 8.054688 -41.910156 10.601562 -44.925781 13.875 -47.09375 C 17.15625 -49.257812 20.9375 -50.34375 25.21875 -50.34375 C 28.144531 -50.34375 30.707031 -49.828125 32.90625 -48.796875 C 35.101562 -47.773438 37.195312 -45.859375 39.1875 -43.046875 L 39.1875 -67.03125 L 51.046875 -67.03125 L 51.046875 0 L 39.1875 0 L 39.1875 -6.234375 C 37.195312 -3.484375 35.101562 -1.59375 32.90625 -0.5625 C 30.707031 0.457031 28.144531 0.96875 25.21875 0.96875 Z M 27.9375 -9.21875 C 31.75 -9.21875 34.820312 -10.648438 37.15625 -13.515625 C 39.5 -16.390625 40.671875 -20.113281 40.671875 -24.6875 C 40.671875 -29.257812 39.5 -32.976562 37.15625 -35.84375 C 34.820312 -38.71875 31.75 -40.15625 27.9375 -40.15625 C 24.1875 -40.15625 21.171875 -38.703125 18.890625 -35.796875 C 16.609375 -32.898438 15.46875 -29.195312 15.46875 -24.6875 C 15.46875 -20.238281 16.609375 -16.546875 18.890625 -13.609375 C 21.171875 -10.679688 24.1875 -9.21875 27.9375 -9.21875 Z M 27.9375 -9.21875 "/></g></g></g></g></g><g clip-path="url(#fa50e16c93)"><g clip-path="url(#7207eb24e5)"><g transform="matrix(1, 0, 0, 1, 125, 68)"><g clip-path="url(#45b7d56785)"><g clip-path="url(#69a9eb1646)"><g clip-path="url(#1cc37a0b3d)"><path fill="#ffffff" d="M 0.535156 0.910156 L 35.257812 0.910156 L 35.257812 35.632812 L 0.535156 35.632812 Z M 0.535156 0.910156 " fill-opacity="1" fill-rule="nonzero"/></g></g></g></g></g></g><g clip-path="url(#017afbbb0b)"><path fill="#282a32" d="M 155.425781 87.769531 C 143.675781 92.984375 144.785156 91.878906 139.566406 103.628906 C 134.347656 91.878906 135.457031 92.984375 123.707031 87.769531 C 135.457031 82.550781 134.347656 83.660156 139.566406 71.90625 C 144.785156 83.660156 143.675781 82.550781 155.425781 87.769531 Z M 155.425781 87.769531 " fill-opacity="1" fill-rule="nonzero"/></g><g transform="matrix(1, 0, 0, 1, 227, 23)"><g clip-path="url(#46b3732154)"><g fill="#ffffff" fill-opacity="1"><g transform="translate(0.352982, 88.611863)"><g><path d="M 28.46875 0.96875 C 23.4375 0.96875 19.03125 -0.128906 15.25 -2.328125 C 11.46875 -4.523438 8.535156 -7.523438 6.453125 -11.328125 C 4.378906 -15.140625 3.34375 -19.476562 3.34375 -24.34375 C 3.34375 -27.5625 3.835938 -30.722656 4.828125 -33.828125 C 5.828125 -36.929688 7.351562 -39.726562 9.40625 -42.21875 C 11.457031 -44.707031 14.035156 -46.6875 17.140625 -48.15625 C 20.242188 -49.625 23.90625 -50.359375 28.125 -50.359375 C 31.28125 -50.359375 34.335938 -49.859375 37.296875 -48.859375 C 40.253906 -47.859375 42.90625 -46.316406 45.25 -44.234375 C 47.59375 -42.160156 49.453125 -39.507812 50.828125 -36.28125 C 52.210938 -33.0625 52.90625 -29.226562 52.90625 -24.78125 L 52.90625 -22.234375 L 15.640625 -22.234375 C 15.753906 -21.179688 15.988281 -20.140625 16.34375 -19.109375 C 16.695312 -18.085938 17.078125 -17.195312 17.484375 -16.4375 C 18.660156 -14.144531 20.226562 -12.367188 22.1875 -11.109375 C 24.144531 -9.859375 26.382812 -9.234375 28.90625 -9.234375 C 31.71875 -9.234375 34.078125 -9.960938 35.984375 -11.421875 C 37.890625 -12.890625 39.222656 -14.617188 39.984375 -16.609375 L 52.109375 -16.609375 C 51.171875 -13.441406 49.675781 -10.523438 47.625 -7.859375 C 45.570312 -5.191406 42.960938 -3.050781 39.796875 -1.4375 C 36.640625 0.164062 32.863281 0.96875 28.46875 0.96875 Z M 16.171875 -31.109375 L 40.78125 -31.109375 C 40.71875 -31.753906 40.550781 -32.484375 40.28125 -33.296875 C 40.019531 -34.117188 39.566406 -34.910156 38.921875 -35.671875 C 37.816406 -37.429688 36.335938 -38.75 34.484375 -39.625 C 32.640625 -40.507812 30.632812 -40.953125 28.46875 -40.953125 C 26.300781 -40.953125 24.320312 -40.507812 22.53125 -39.625 C 20.75 -38.75 19.273438 -37.429688 18.109375 -35.671875 C 17.460938 -34.910156 17.003906 -34.117188 16.734375 -33.296875 C 16.472656 -32.484375 16.285156 -31.753906 16.171875 -31.109375 Z M 16.171875 -31.109375 "/></g></g></g><g fill="#ffffff" fill-opacity="1"><g transform="translate(49.3886, 88.611863)"><g><path d="M 10.890625 0.96875 C 8.898438 0.96875 7.203125 0.28125 5.796875 -1.09375 C 4.390625 -2.46875 3.6875 -4.15625 3.6875 -6.15625 C 3.6875 -8.03125 4.40625 -9.65625 5.84375 -11.03125 C 7.28125 -12.40625 8.960938 -13.09375 10.890625 -13.09375 C 12.765625 -13.09375 14.375 -12.40625 15.71875 -11.03125 C 17.070312 -9.65625 17.75 -8.03125 17.75 -6.15625 C 17.75 -4.15625 17.070312 -2.46875 15.71875 -1.09375 C 14.375 0.28125 12.765625 0.96875 10.890625 0.96875 Z M 10.890625 0.96875 "/></g></g></g></g></g><g transform="matrix(1, 0, 0, 1, 166, 21)"><g clip-path="url(#4ee7032833)"><g fill="#caef35" fill-opacity="1"><g transform="translate(0.88365, 90.951127)"><g><path d="M 40.40625 -68.078125 C 41.863281 -68.078125 43.144531 -67.644531 44.25 -66.78125 C 45.351562 -65.925781 45.90625 -64.648438 45.90625 -62.953125 C 45.90625 -61.265625 44.96875 -58.613281 43.09375 -55 C 41.21875 -51.382812 38.960938 -47.691406 36.328125 -43.921875 C 33.703125 -40.160156 30.722656 -36.164062 27.390625 -31.9375 C 22.128906 -25.21875 17.082031 -19.179688 12.25 -13.828125 C 12.21875 -13.472656 12.085938 -12.800781 11.859375 -11.8125 C 11.628906 -10.832031 11.515625 -9.84375 11.515625 -8.84375 C 11.515625 -7.84375 11.972656 -6.941406 12.890625 -6.140625 C 13.816406 -5.335938 14.960938 -4.9375 16.328125 -4.9375 C 17.691406 -4.9375 19.148438 -5.421875 20.703125 -6.390625 C 22.265625 -7.359375 23.617188 -8.429688 24.765625 -9.609375 C 27.785156 -12.722656 29.660156 -14.28125 30.390625 -14.28125 C 31.117188 -14.28125 31.484375 -13.175781 31.484375 -10.96875 L 31.484375 -10.0625 C 31.484375 -8.882812 31.269531 -8.023438 30.84375 -7.484375 C 28.300781 -4.367188 25.441406 -2.046875 22.265625 -0.515625 C 19.085938 1.003906 16.078125 1.765625 13.234375 1.765625 C 10.398438 1.765625 8.238281 0.894531 6.75 -0.84375 C 5.269531 -2.582031 4.53125 -4.960938 4.53125 -7.984375 C 4.53125 -13.878906 6.109375 -20.8125 9.265625 -28.78125 C 12.429688 -36.75 15.992188 -43.53125 19.953125 -49.125 C 28.878906 -61.757812 35.695312 -68.078125 40.40625 -68.078125 Z M 38.375 -60.546875 C 38.375 -61.003906 38.222656 -61.234375 37.921875 -61.234375 C 36.859375 -61.234375 34.070312 -58.207031 29.5625 -52.15625 C 25.0625 -46.113281 21.804688 -41.289062 19.796875 -37.6875 C 17.785156 -34.09375 15.890625 -29.570312 14.109375 -24.125 C 17.671875 -28.363281 22.601562 -34.960938 28.90625 -43.921875 C 35.21875 -52.890625 38.375 -58.429688 38.375 -60.546875 Z M 38.375 -60.546875 "/></g></g></g><g fill="#caef35" fill-opacity="1"><g transform="translate(25.853519, 90.951127)"><g><path d="M 40.40625 -68.078125 C 41.863281 -68.078125 43.144531 -67.644531 44.25 -66.78125 C 45.351562 -65.925781 45.90625 -64.648438 45.90625 -62.953125 C 45.90625 -61.265625 44.96875 -58.613281 43.09375 -55 C 41.21875 -51.382812 38.960938 -47.691406 36.328125 -43.921875 C 33.703125 -40.160156 30.722656 -36.164062 27.390625 -31.9375 C 22.128906 -25.21875 17.082031 -19.179688 12.25 -13.828125 C 12.21875 -13.472656 12.085938 -12.800781 11.859375 -11.8125 C 11.628906 -10.832031 11.515625 -9.84375 11.515625 -8.84375 C 11.515625 -7.84375 11.972656 -6.941406 12.890625 -6.140625 C 13.816406 -5.335938 14.960938 -4.9375 16.328125 -4.9375 C 17.691406 -4.9375 19.148438 -5.421875 20.703125 -6.390625 C 22.265625 -7.359375 23.617188 -8.429688 24.765625 -9.609375 C 27.785156 -12.722656 29.660156 -14.28125 30.390625 -14.28125 C 31.117188 -14.28125 31.484375 -13.175781 31.484375 -10.96875 L 31.484375 -10.0625 C 31.484375 -8.882812 31.269531 -8.023438 30.84375 -7.484375 C 28.300781 -4.367188 25.441406 -2.046875 22.265625 -0.515625 C 19.085938 1.003906 16.078125 1.765625 13.234375 1.765625 C 10.398438 1.765625 8.238281 0.894531 6.75 -0.84375 C 5.269531 -2.582031 4.53125 -4.960938 4.53125 -7.984375 C 4.53125 -13.878906 6.109375 -20.8125 9.265625 -28.78125 C 12.429688 -36.75 15.992188 -43.53125 19.953125 -49.125 C 28.878906 -61.757812 35.695312 -68.078125 40.40625 -68.078125 Z M 38.375 -60.546875 C 38.375 -61.003906 38.222656 -61.234375 37.921875 -61.234375 C 36.859375 -61.234375 34.070312 -58.207031 29.5625 -52.15625 C 25.0625 -46.113281 21.804688 -41.289062 19.796875 -37.6875 C 17.785156 -34.09375 15.890625 -29.570312 14.109375 -24.125 C 17.671875 -28.363281 22.601562 -34.960938 28.90625 -43.921875 C 35.21875 -52.890625 38.375 -58.429688 38.375 -60.546875 Z M 38.375 -60.546875 "/></g></g></g></g></g></svg>